<svg xmlns="http://www.w3.org/2000/svg" viewBox="0 0 1200 630" width="1200" height="630">
  <!-- Background -->
  <defs>
    <linearGradient id="bg" x1="0" y1="0" x2="1" y2="1">
      <stop offset="0%" stop-color="#071a16"/>
      <stop offset="100%" stop-color="#0f2e28"/>
    </linearGradient>
  </defs>
  <rect width="1200" height="630" fill="url(#bg)"/>

  <!-- Decorative circles -->
  <circle cx="100"  cy="100"  r="180" fill="#06B6D4" opacity="0.07"/>
  <circle cx="1100" cy="530"  r="220" fill="#06B6D4" opacity="0.07"/>
  <circle cx="600"  cy="315"  r="300" fill="#06B6D4" opacity="0.04"/>

  <!-- Accent top bar -->
  <rect x="0" y="0" width="6" height="630" fill="#06B6D4" opacity="0.8"/>

  <!-- Icon group (centered at 600,290) -->
  <g transform="translate(600,290)" fill="none" stroke-linecap="round" stroke-linejoin="round">

    <path d="M-110,-85 L-110,85 Q-105,95 -95,90 L0,75 L0,-85 Z"
          stroke="#00FFB2" stroke-width="4" fill="#00FFB2" opacity="0.1"/>
    <path d="M110,-85 L110,85 Q105,95 95,90 L0,75 L0,-85 Z"
          stroke="white" stroke-width="4" fill="white" opacity="0.05"/>
    <line x1="0" y1="-85" x2="0" y2="75" stroke="white" stroke-width="3"/>
    <line x1="-85" y1="10" x2="-15" y2="10" stroke="#00FFB2" stroke-width="3" opacity="0.6"/>
    <line x1="-85" y1="30" x2="-15" y2="30" stroke="white" stroke-width="3" opacity="0.3"/>
  </g>

  <!-- Bottom label strip -->
  <rect x="0" y="575" width="1200" height="55" fill="#06B6D4" opacity="0.12"/>
  <text x="60" y="608" font-family="Arial,sans-serif" font-size="20" font-weight="bold"
        fill="#06B6D4" opacity="0.9" letter-spacing="2">N.I.T EGYPT</text>
  <text x="1140" y="608" font-family="Arial,sans-serif" font-size="16"
        fill="white" opacity="0.5" text-anchor="end">Moodle Egypt</text>
</svg>